#!OML:ASF H:\Terrain\Walking\May29\JustinRory\Justin.ASF
:FULLY-SPECIFIED
:DEGREES
1435
root 6.34939 17.9999 6.68206 -175.554 1.40492 182.387
lowerback -1.49532 1.10157 -1.1141
upperback 0.998382 1.59239 -2.14765
thorax 1.89316 0.820985 -1.52744
lowerneck -14.6788 -0.534624 -12.685
upperneck 26.6027 1.1338 -0.441976
head 11.0324 -1.42358 2.00644
rclavicle 8.74653e-015 -3.26007e-014
rhumerus -28.681 -5.00029 -82.2972
rradius 52.6943
rwrist -15.1661
rhand -16.822 27.1835
rfingers 7.12502
rthumb 9.4071 -2.58659
lclavicle 8.74653e-015 -3.26007e-014
lhumerus -29.6757 16.2664 70.0714
lradius 48.8668
lwrist -0.833897
lhand 0.0249427 39.469
lfingers 7.12502
lthumb 25.6143 67.7663
rfemur 1.14944 0.618601 12.4118
rtibia 7.50104
rfoot -7.1023 -14.1359
rtoes -4.00707
lfemur -9.16435 0.404673 -22.7353
ltibia 23.5542
lfoot -14.6425 -3.0728
ltoes 2.3558
1436
root 6.34919 17.9992 6.68328 -175.545 1.41421 182.278
lowerback -1.45151 1.07921 -1.365
upperback 0.940844 1.56442 -2.10419
thorax 1.80113 0.803486 -1.34476
lowerneck -14.5289 -0.842 -12.9457
upperneck 26.2803 0.768455 -0.519712
head 10.9124 -1.59566 1.97171
rclavicle -4.77083e-015 -1.27222e-014
rhumerus -28.9036 -4.46207 -82.4866
rradius 53.9082
rwrist -16.0402
rhand -17.1823 27.0498
rfingers 7.12502
rthumb 9.05944 -2.73568
lclavicle -4.77083e-015 -1.27222e-014
lhumerus -29.8478 16.259 70.2518
lradius 49.3382
lwrist -0.829416
lhand 0.780101 39.8997
lfingers 7.12502
lthumb 26.3374 68.091
rfemur 1.2791 0.619225 12.2789
rtibia 7.20425
rfoot -7.15939 -14.2355
rtoes -4.9188
lfemur -9.16066 0.309615 -22.8848
ltibia 23.5279
lfoot -14.6527 -2.88323
ltoes 1.89347
1437
root 6.34634 18.0026 6.68333 -175.492 1.4689 182.128
lowerback -1.65612 1.08264 -1.3653
upperback 0.976507 1.58871 -2.2994
thorax 1.95891 0.820556 -1.53949
lowerneck -14.2776 -1.2267 -13.1655
upperneck 25.8549 0.205675 -0.264691
head 10.7425 -1.79314 2.02903
rclavicle -8.74653e-015 2.8625e-014
rhumerus -28.9331 -4.32415 -82.9649
rradius 54.8231
rwrist -16.4983
rhand -17.0539 27.9134
rfingers 7.12502
rthumb 9.18335 -1.86664
lclavicle -8.74653e-015 2.8625e-014
lhumerus -29.8038 16.1211 70.1933
lradius 49.8356
lwrist -0.931993
lhand 1.19303 40.3033
lfingers 7.12502
lthumb 26.7326 68.4349
rfemur 1.35499 0.655203 12.0802
rtibia 6.89171
rfoot -7.12701 -14.2434
rtoes -5.22489
lfemur -9.2302 0.131577 -23.073
ltibia 23.5526
lfoot -14.6575 -2.74858
ltoes 2.54767
1438
root 6.34411 18.0036 6.6871 -175.545 1.51283 182.269
lowerback -1.4659 1.06028 -1.3357
upperback 0.910659 1.54235 -2.18271
thorax 1.78094 0.794633 -1.44244
lowerneck -14.2096 -1.6277 -13.6734
upperneck 25.6727 -0.300223 -0.00892866
head 10.7041 -2.02052 2.13835
rclavicle 1.70955e-014 3.97569e-015
rhumerus -29.1 -3.87943 -83.1588
rradius 55.7895
rwrist -16.1277
rhand -16.8331 28.6514
rfingers 7.12502
rthumb 9.39643 -1.11917
lclavicle 1.70955e-014 3.97569e-015
lhumerus -30.0164 16.2112 70.3824
lradius 50.4006
lwrist -1.1256
lhand 0.115813 40.2949
lfingers 7.12502
lthumb 25.7013 68.5796
rfemur 1.38601 0.718863 12.2291
rtibia 6.81749
rfoot -6.98857 -14.2451
rtoes -5.35416
lfemur -9.16633 0.146011 -22.9246
ltibia 23.5673
lfoot -14.6962 -2.6835
ltoes 2.57446
1439
root 6.34328 18.0025 6.69052 -175.603 1.55035 182.456
lowerback -1.55346 1.03561 -1.05473
upperback 1.04918 1.50938 -2.20406
thorax 1.97952 0.78179 -1.61956
lowerneck -14.3089 -1.99854 -14.0495
upperneck 25.3362 -0.72916 0.247896
head 10.637 -2.17752 2.23764
rclavicle 2.36554e-014 4.77083e-014
rhumerus -28.9963 -3.39957 -83.6829
rradius 56.8687
rwrist -15.8037
rhand -21.0905 28.4436
rfingers 7.12502
rthumb 5.28692 -1.47043
lclavicle 2.36554e-014 4.77083e-014
lhumerus -29.8592 16.1841 70.5111
lradius 50.9034
lwrist -1.12416
lhand -0.674473 40.3836
lfingers 7.12502
lthumb 24.9442 68.7756
rfemur 1.30685 0.780142 12.4392
rtibia 6.98038
rfoot -6.94736 -14.2953
rtoes -5.85418
lfemur -9.10376 0.248174 -22.7275
ltibia 23.5795
lfoot -14.7398 -2.67948
ltoes 2.23975
1440
root 6.34257 17.9994 6.69281 -175.605 1.58302 182.307
lowerback -1.58324 1.04158 -1.1741
upperback 1.115 1.53019 -2.28195
thorax 2.06357 0.793602 -1.63068
lowerneck -14.6582 -2.31013 -14.4408
upperneck 25.2771 -1.03837 0.53733
head 10.7147 -2.29907 2.36446
rclavicle 6.16232e-015 -4.77083e-014
rhumerus -28.9791 -2.88869 -84.1636
rradius 58.0556
rwrist -16.6357
rhand -23.3805 28.6722
rfingers 7.12502
rthumb 3.07566 -1.28538
lclavicle 6.16232e-015 -4.77083e-014
lhumerus -29.8095 16.0255 70.7533
lradius 51.325
lwrist -0.851032
lhand -1.26561 39.8007
lfingers 7.12502
lthumb 24.3776 68.2701
rfemur 1.23447 0.802188 12.255
rtibia 7.10557
rfoot -7.0533 -14.2973
rtoes -5.98385
lfemur -9.12475 0.313343 -22.8984
ltibia 23.6163
lfoot -14.7403 -2.75471
ltoes 2.39134
